inDegrees=yes
name=ik_MT_01200627-000-000_orientations_updatedTime
DataType=double
version=3
OpenSimVersion=4.5-2024-07-10-f38669b70
endheader
time	pelvis_tilt	pelvis_list	pelvis_rotation	pelvis_tx	pelvis_ty	pelvis_tz	hip_flexion_r	hip_adduction_r	hip_rotation_r	knee_angle_r	knee_angle_r_beta	ankle_angle_r	subtalar_angle_r	mtp_angle_r	hip_flexion_l	hip_adduction_l	hip_rotation_l	knee_angle_l	knee_angle_l_beta	ankle_angle_l	subtalar_angle_l	mtp_angle_l	lumbar_extension	lumbar_bending	lumbar_rotation	arm_flex_r	arm_add_r	arm_rot_r	elbow_flex_r	pro_sup_r	wrist_flex_r	wrist_dev_r	arm_flex_l	arm_add_l	arm_rot_l	elbow_flex_l	pro_sup_l	wrist_flex_l	wrist_dev_l
1747398477.263803	-0.004395289086442765	-0.05613631714308518	72.46573733183543	0	0.9399999999999999	0	44.96100817331482	-9.999999986737643	0	59.83057340133828	1.044240499209496	-4.999999851044835	0	0	44.96100817331482	-9.999999986737643	0	59.83057340133828	1.044240499209496	-4.999999851044835	0	0	0.03275653011512439	-0.009568253512665223	0.01148330573127313	-0.5109202969493786	-0.09474681802732916	-0.4787624019324002	0.6562522837038031	0.6421438396459898	0	0	-0.4638762582676028	-0.1221306498637467	-0.4954440753651682	0.6785424984500776	0.6810315354192384	0	0
1747398477.273803	-0.009650418165316777	-0.07450637289166749	72.4738997762181	0	0.9399999999999999	0	44.96317225910304	-9.999999987048566	0	59.83802632522325	1.044370577270189	-4.999999851045332	0	0	44.96317225910304	-9.999999987048566	0	59.83802632522325	1.044370577270189	-4.999999851045332	0	0	0.0275332881756229	-0.01066838523879305	0.01533622419103305	-0.4174332407020104	-0.08325333446744081	-0.4316443417207189	0.561793392821426	0.5486612722483613	0	0	-0.3799639997937045	-0.112265859208745	-0.4221380141714555	0.5778006794888915	0.5911330257497042	0	0
1747398477.283803	0.005375240986490745	-0.05082314241353977	72.4716862503456	0	0.9399999999999999	0	44.9649840224787	-9.99999998728164	0	59.84432755329124	1.044480554446894	-4.999999851045688	0	0	44.9649840224787	-9.99999998728164	0	59.84432755329124	1.044480554446894	-4.999999851045688	0	0	-0.01010635966504486	-0.005370815544058336	0.007907999464939197	-0.4078964669610848	-0.07755989118896042	-0.4093292883990509	0.5626492710306746	0.5324366447850563	0	0	-0.3602491695218761	-0.1126603396327608	-0.4146921103722753	0.5680031025518902	0.573654707400532	0	0
1747398477.293803	-0.00332378603732192	-0.07547174717937452	72.47371537449177	0	0.9399999999999999	0	44.96613113378763	-9.999999987414657	0	59.84835660641293	1.044550874689606	-4.999999851045887	0	0	44.96613113378763	-9.999999987414657	0	59.84835660641293	1.044550874689606	-4.999999851045887	0	0	0.0355199471883697	-0.002285995433784397	0.01115844921904689	-0.4243316628363316	-0.07971911081571117	-0.4202628261875488	0.5515238285079102	0.535316099971063	0	0	-0.3788468158197318	-0.1078448379441141	-0.4168798773452137	0.5665222544340501	0.5794678757492437	0	0
1747398477.303803	-0.02266285320768872	-0.1397477227516404	72.49644254127672	0	0.9399999999999999	0	44.96692229844907	-9.999999987499153	0	59.85115724842679	1.044599755113917	-4.999999851046007	0	0	44.96692229844907	-9.999999987499153	0	59.85115724842679	1.044599755113917	-4.999999851046007	0	0	0.1626394815975747	-0.002954575359771503	-0.01554031952913775	-0.4974369266816702	-0.08368756705905843	-0.4056234486229613	0.5657393620082677	0.5268135856937003	0	0	-0.447725530710462	-0.1130602845587904	-0.4103227378881473	0.5694125782098839	0.5734547322599564	0	0
1747398477.313803	0.001189873380679901	-0.0716021230584931	72.47016437414969	0	0.9399999999999999	0	44.96867384940014	-9.999999987675791	0	59.85739244470309	1.044708579818447	-4.999999851046256	0	0	44.96867384940014	-9.999999987675791	0	59.85739244470309	1.044708579818447	-4.999999851046256	0	0	0.01792860186481451	-2.958158270759e-05	0.01028937703420182	-0.7455897177283175	-0.1655180237301921	-0.7580926875608436	1.068557567364066	1.04152051139327	0	0	-0.7025909872835282	-0.1957066109650459	-0.7665868134312094	1.080612017643068	1.086410771988577	0	0
1747398477.323803	-0.003525891359982774	-0.07935021241639025	72.45931513510446	0	0.9399999999999999	0	44.97072529467667	-9.999999987858823	0	59.86482907432298	1.044838373490565	-4.999999851046485	0	0	44.97072529467667	-9.999999987858823	0	59.86482907432298	1.044838373490565	-4.999999851046485	0	0	0.03277980499385039	-0.004788797100056452	0.01081351860102935	-0.4087991537139236	-0.08205082629470439	-0.4080467721492635	0.5479584090418677	0.5406339545860162	0	0	-0.375265570909927	-0.1053011897023659	-0.4307068935623259	0.5664823180894277	0.5790843806677548	0	0
1747398477.333803	-0.01950475050704168	-0.08826810038875416	72.48730437833727	0	0.9399999999999999	0	44.97163978662056	-9.999999987927859	0	59.86817089532498	1.044896699270062	-4.999999851046573	0	0	44.97163978662056	-9.999999987927859	0	59.86817089532498	1.044896699270062	-4.999999851046573	0	0	0.07474565525966412	-0.008952841231976106	-0.002538119309425494	-0.4536810799731694	-0.09249223816692147	-0.4249792466299806	0.569098673209449	0.5334734489052662	0	0	-0.4068426171214627	-0.09788954297011906	-0.4164696030897291	0.5606025833748994	0.5756833642308656	0	0
1747398477.343803	0.0009667471637165459	-0.06950826039411941	72.46495227380821	0	0.9399999999999999	0	44.97303298910639	-9.99999998802619	0	59.87329441018225	1.044986121473596	-4.999999851046694	0	0	44.97303298910639	-9.99999998802619	0	59.87329441018225	1.044986121473596	-4.999999851046694	0	0	0.01729623506660194	-0.007653814213033045	0.02164033732906419	-0.4112986820696998	-0.07138224170890406	-0.4264089282257661	0.5549932082854394	0.5398386693933569	0	0	-0.3716838935603821	-0.1164802243357303	-0.4163143781011697	0.570431459493732	0.5801540978103924	0	0
1747398477.353803	-0.01938192972571503	-0.112365536361857	72.48831042908226	0	0.9399999999999999	0	44.97365744634844	-9.999999988065813	0	59.87561422789501	1.04502660993073	-4.99999985104674	0	0	44.97365744634844	-9.999999988065813	0	59.87561422789501	1.04502660993073	-4.99999985104674	0	0	0.1089508148724615	-0.00675323661184585	-0.006668688003028754	-0.4617749781332269	-0.08274867305906666	-0.4137431704019458	0.5630711272553116	0.5309523635069974	0	0	-0.4222179115248822	-0.114087477255064	-0.4150204176663413	0.5683789294463302	0.5799334164832768	0	0
